<svg
  width="1086"
  height="1167"
  viewBox="0 0 1086 1167"
  fill="none"
  xmlns="http://www.w3.org/2000/svg"
>

  <!-- 6. The irises (left then right) -->
  <path
    d="M508.76 548.477C506.13 600.257 447.01 634.627 398.56 612.737C376.56 602.767 359.49 583.527 353.88 562.217C351.71 554.077 351.71 535.987 353.88 527.847C356.17 519.027 361.44 508.827 367.86 500.927C377.83 488.677 395.7 476.987 410.13 473.547C420.33 471.037 440.48 471.257 450.91 473.897C486.08 482.947 510.48 514.447 508.76 548.477Z"
    fill="black"
  />
  <path
    d="M732.94 544.617C732.94 556.527 732.6 559.397 729.96 566.027C710.94 615.987 651.6 634.087 608.19 603.037C593.75 592.727 582.64 577.137 578.4 561.217C576.23 553.077 576.23 534.987 578.4 526.847C580.81 517.687 586.42 507.027 592.95 499.247C602.92 487.217 620.21 476.107 634.65 472.437C644.73 469.917 669.94 470.707 679.79 473.917C697.2 479.647 714.27 493.047 723.09 508.067C731.11 521.697 733.06 528.797 732.94 544.607V544.617Z"
    fill="black"
  />

</svg>
