<svg
  width="1086"
  height="1167"
  viewBox="0 0 1086 1167"
  fill="none"
  xmlns="http://www.w3.org/2000/svg"
>

  <!-- 5. The white "sclera" -->
  <path
    d="M794.23 541.287C773.5 478.957 714.73 438.987 653.1 445.167C608.89 449.757 571.53 474.727 547.48 515.737C544.97 519.977 542.68 523.417 542.32 523.417C541.96 523.417 539.46 519.177 536.6 514.137C530.87 503.707 516.78 486.407 508.3 479.197C485.38 459.837 464.77 449.867 439.56 446.087C429.26 444.487 414.25 444.027 407.14 445.067C371.51 450.227 348.95 461.097 325.81 484.477C305.64 504.747 292.13 530.637 285.49 561.807C281.94 578.187 282.05 606.137 285.61 623.087C297.98 681.747 339.56 724.367 396.27 736.727C400.51 737.647 410.25 738.097 421.47 738.097C437.4 737.977 441.3 737.637 451.26 734.887C473.03 729.157 498.34 714.377 514.04 698.347C522.51 689.747 533.5 674.977 537.86 666.507C539.69 662.827 541.52 659.627 542.1 659.287C542.68 658.947 544.39 661.357 545.99 664.677C552.98 678.997 571.43 700.307 586.67 711.757C618.28 735.477 656.09 743.837 693.55 735.477C739.95 725.047 777.07 690.797 794.13 642.567C800.31 624.927 801.8 615.537 801.8 592.167C801.8 568.797 800.54 560.087 794.24 541.307L794.23 541.287Z"
    fill="white"
  />

</svg>
