<svg
  width="1086"
  height="1167"
  viewBox="0 0 1086 1167"
  fill="none"
  xmlns="http://www.w3.org/2000/svg"
>

  <!-- 1. The black 'outline/background' part -->
  <path
    d="M1047.4 500.507C1000.09 407.027 920.59 304.047 806.03 187.657C715.87 96.0071 638.2 33.4571 586.65 11.1171C563.74 1.15705 541.98 -2.28295 525.71 1.49705C489.28 9.97705 435.78 43.9971 372.77 98.9871C317.67 146.987 233.59 232.327 181.92 292.587C93.71 395.577 30.59 496.847 8.01999 571.647C1.48999 593.297 0 602.927 0 624.807C0 646.687 1.14997 654.357 6.18997 666.617C17.76 694.687 40.9 713.127 77.22 723.097C105.97 731.107 159.58 736.497 209.19 736.497H228.32L230.04 742.457C239.43 774.877 241.49 791.367 241.61 834.447V869.957L235.76 881.987C206.67 941.787 202.54 991.847 223.16 1034.92C237.94 1065.85 264.75 1095.87 302.32 1123.82C314.69 1132.98 331.3 1143.18 333.82 1143.18C334.86 1143.18 339.9 1140.54 345.17 1137.33C365.67 1124.73 381.14 1105.6 389.96 1081.89C391.56 1077.42 393.62 1073.87 394.43 1073.87C395.24 1073.87 397.52 1078.22 399.58 1084.18C407.49 1106.06 416.88 1120.61 433.26 1136.53C447.24 1150.05 471.29 1166.09 477.59 1166.09C479.89 1166.09 492.14 1159.9 498.79 1155.44C501.65 1153.49 507.72 1148.33 512.42 1143.86C525.82 1130.92 533.27 1118.78 538.31 1101.25C539.91 1095.75 541.52 1090.94 541.75 1090.6C543.01 1089.45 544.5 1092.54 546.79 1101.13C553.55 1125.99 570.96 1147.53 595.24 1160.82C605.9 1166.78 610.37 1166.55 622.05 1159.44C654.24 1140.2 675.66 1114.42 686.09 1082.81C687.81 1077.42 689.75 1073.3 690.67 1073.3C691.47 1073.3 693.53 1077.31 695.25 1082.23C703.73 1106.52 722.29 1128.4 743.94 1139.63L752.53 1144.09L766.28 1134.93C824.24 1095.98 860.67 1052.45 871.33 1009.37C874.76 995.857 874.99 958.627 871.9 944.187C869.27 932.047 861.02 908.107 853.34 890.007C843.6 867.437 843.03 864.227 843.15 832.147C843.26 796.407 846.35 772.007 854.03 746.007L856.55 737.757L862.39 737.187C865.6 736.837 879.8 736.267 894.01 735.927C991.15 733.517 1034.57 722.057 1063.21 691.357C1076.84 676.807 1083.72 660.197 1085.21 638.087C1087.84 598.917 1076.5 557.897 1047.4 500.507Z"
    fill="black"
  />

</svg>
