<svg
  width="1086"
  height="1167"
  viewBox="0 0 1086 1167"
  fill="none"
  xmlns="http://www.w3.org/2000/svg"
>

  <!-- 2. The orange "colored body" part -->
  <path
    d="M1026.32 593.067C1015.33 537.507 963.55 451.017 876.71 342.877C761.81 200.027 612.43 57.9771 556.64 38.8471C549.08 36.2071 537.39 35.8671 530.29 38.1571C475.19 55.4571 322.71 200.027 206.32 345.287C112.27 462.707 59.46 555.957 56.94 609.337C55.57 638.207 63.58 650.007 95.32 665.927C123.5 680.017 169.55 691.127 226.71 697.547C238.74 698.807 249.05 700.067 249.74 700.407C251.34 700.867 267.5 741.537 274.14 761.697C276.78 769.607 281.36 785.067 284.34 796.067L289.83 816.117L294.65 817.717C297.51 818.637 301.86 821.497 305.3 824.817C322.6 841.657 320.08 865.027 299.8 874.657C294.19 877.287 293.73 877.857 292.01 884.047C290.98 887.597 287.54 896.307 284.45 903.287C281.36 910.397 278.84 916.697 278.84 917.387C278.84 917.957 281.36 920.937 284.57 923.907C292.24 931.127 295.79 938.807 297.4 951.407C298.54 960.797 298.43 962.177 296.14 967.897C291.78 979.477 283.19 986.917 270.7 990.237C267.5 991.157 264.63 992.077 264.29 992.307C263.26 993.447 267.73 1007.77 271.96 1016.82C277.81 1029.19 283.19 1037.21 292.7 1047.41C300.26 1055.54 314.92 1068.03 327.64 1077.08L333.48 1081.32L344.25 1072.27C362.12 1057.37 379.99 1034.46 390.53 1013.27C393.28 1007.54 397.4 996.767 399.47 989.207C403.82 974.087 403.59 973.857 405.54 993.107C406 997.227 406.57 1000.9 406.8 1001.36C407.03 1001.81 409.66 1001.01 412.64 999.517C420.54 995.507 426.96 994.017 436.81 994.017C462.47 994.137 488.71 1016.36 493.17 1042.02C494.89 1051.42 493.06 1059.78 487.45 1068.37C480.69 1078.91 474.62 1083.15 459.49 1088.19C455.26 1089.56 451.93 1091.28 452.16 1091.97C452.96 1094.49 471.64 1104.23 475.65 1104.23C483.21 1104.23 497.76 1095.06 507.84 1084.07C523.07 1067.34 536.02 1035.72 540.03 1005.48C541.86 991.727 542.89 989.897 543.81 998.947C546.1 1023.58 557.44 1056.46 569.93 1074.44C581.38 1091.05 598.45 1104.11 608.65 1104.23C618.73 1104.23 643.01 1085.33 653.9 1068.83C667.76 1047.87 676.35 1021.29 679.9 988.527L681.28 975.807L687.23 993.677C690.44 1003.53 693.88 1012.24 694.79 1013.15C696.17 1014.53 697.32 1014.3 703.73 1011.09C709.8 1008.11 712.32 1007.54 719.2 1007.43C726.07 1007.43 728.59 1008 735 1011.09C744.4 1015.56 753.45 1023.81 757.46 1031.48C763.87 1043.97 760.09 1062.53 749.78 1069.4C744.63 1072.84 744.05 1074.33 747.15 1077.08C750.36 1079.94 753.33 1079.48 760.09 1074.9C781.06 1060.81 802.59 1038.13 811.3 1021.06L813.71 1016.36L801.56 1015.68C790.68 1015.22 788.73 1014.76 781.17 1010.98C753.56 997.347 747.15 961.487 766.97 931.927C774.18 921.047 781.06 914.977 792.05 909.817C796.75 907.527 800.76 905.587 800.87 905.467C801.1 905.357 799.39 900.657 797.32 895.047C795.15 889.427 792.97 883.247 792.4 881.407C791.6 878.547 790.34 877.627 784.26 875.457C769.83 870.527 762.73 863.077 761.58 851.507C759.63 833.527 771.09 818.747 788.16 817.027C791.6 816.687 794.8 815.767 795.26 815.087C795.83 814.397 797.44 809.357 798.7 803.857C807.86 766.627 829.74 706.257 835.93 701.217C836.73 700.527 848.53 698.577 862.05 696.977C955.07 685.857 1011.89 664.787 1024.83 636.257C1028.39 628.467 1029.19 606.927 1026.32 593.067Z"
    fill="#FF9500"
  />

</svg>
