<svg
  width="1086"
  height="1167"
  viewBox="0 0 1086 1167"
  fill="none"
  xmlns="http://www.w3.org/2000/svg"
>

  <!-- 3. The black "freckles" -->
  <path d="M600.74 873.967C600.63 894.587 579.78 905.467 560.42 894.927C557.21 893.207 553.09 889.777 551.37 887.367C541.4 873.507 547.59 851.627 563.51 844.637C568.67 842.347 578.4 842.687 583.33 845.207C593.18 850.247 600.74 862.857 600.74 873.967Z" fill="black"/>
  <path d="M420.66 920.477C411.61 928.837 394.88 932.737 386.64 928.497C379.3 924.597 371.63 912.227 370.71 902.487C369.68 891.497 379.42 877.517 391.45 872.937C399.35 869.957 411.72 869.837 418.14 872.707C423.98 875.337 427.3 879.467 429.48 886.907C433.38 899.967 430.28 911.657 420.66 920.477Z" fill="black"/>
  <path d="M709 909.477C709 919.327 708.66 920.937 705.91 925.747C697.2 940.527 674.52 950.257 662.26 944.417C648.63 938.007 640.15 915.777 645.99 901.687C649.43 893.557 660.77 884.387 671.77 880.727C677.5 878.777 689.64 880.377 696.63 883.817C702.24 886.567 703.73 888.057 706.14 892.867C708.54 897.797 709 900.197 709 909.477Z" fill="black"/>
  <path d="M530.98 984.397C519.98 991.387 503.26 993.337 494.66 988.867C488.94 985.887 482.29 978.557 479.89 972.827C476.68 965.267 476.45 955.417 479.08 946.477C483.44 932.277 493.63 921.167 505.43 917.957C512.19 916.117 518.26 916.807 525.94 920.477C537.05 925.747 543.58 937.317 544.38 953.127C545.18 968.587 541.06 978.097 530.98 984.397Z" fill="black"/>
  <path d="M347.57 1047.52C344.48 1049.24 341.5 1049.81 334.74 1049.81C326.84 1049.81 325.58 1049.47 320.99 1046.38C313.55 1040.99 310.46 1034.69 310.46 1024.15C310.57 1011.55 315.04 1003.76 324.66 999.407C334.17 995.167 350.09 1002.84 355.59 1014.42C360.63 1024.84 356.39 1042.25 347.57 1047.52Z" fill="black"/>
  <path d="M622.28 1041.22C621.59 1052.1 618.39 1058.98 612.66 1061.38C607.39 1063.56 595.13 1063.67 590.89 1061.5C583.79 1057.83 577.95 1047.87 577.83 1039.39C577.83 1032.97 584.02 1020.83 589.17 1017.39C597.65 1011.78 611.74 1016.25 618.96 1026.9C622.62 1032.4 622.74 1032.97 622.28 1041.22Z" fill="black"/>

</svg>
