<svg xmlns="http://www.w3.org/2000/svg" width="1024" height="1024" fill="none"><g clip-path="url(#a)"><path fill="#1B1B1B" stroke="#000" stroke-miterlimit="10" d="M1024 0H0v1024h1024z"/><path fill="#202020" d="M1208.72 695.89c-12.61-54.3-43.99-95.88-88.22-116.85-23.48-11.11-45.13-14.88-79.38-13.97-33.11.92-47.43 4.47-82.72 20.28-29.31 13.28-36.08 13.28-64.48 0-34.37-16.05-49.84-19.6-87.07-20.05-13.52-.23-26.12-.12-28.07.11-14.89 2.18-33.91 7.56-46.28 13.17-19.59 8.94-42.96 28.65-58.77 49.61-14.66 19.59-25.09 44.22-31.5 74.57-2.87 13.64-3.09 17.07-3.09 40.1-.12 27.03 1.26 38.15 6.99 57.86 14.66 50.74 44.79 89.23 86.95 110.66 24.63 12.48 41.12 15.91 72.4 15.11 31.84-.91 44.79-4.34 81.1-21.42 20.96-9.74 29.44-12.03 42.85-11.22 11.91.68 18.78 2.86 42.04 13.86 30.58 14.44 43.41 17.64 74.57 18.67 28.42 1.03 46.98-2.29 68.28-12.14 45.59-21.08 79.28-64.15 93.82-119.83 6.77-25.77 6.99-70.68.58-98.52m0 0c-12.61-54.3-43.99-95.88-88.22-116.85-23.48-11.11-45.13-14.88-79.38-13.97-33.11.92-47.43 4.47-82.72 20.28-29.31 13.28-36.08 13.28-64.48 0-34.37-16.05-49.84-19.6-87.07-20.05-13.52-.23-26.12-.12-28.07.11-14.89 2.18-33.91 7.56-46.28 13.17-19.59 8.94-42.96 28.65-58.77 49.61-14.66 19.59-25.09 44.22-31.5 74.57-2.87 13.64-3.09 17.07-3.09 40.1-.12 27.03 1.26 38.15 6.99 57.86 14.66 50.74 44.79 89.23 86.95 110.66 24.63 12.48 41.12 15.91 72.4 15.11 31.84-.91 44.79-4.34 81.1-21.42 20.96-9.74 29.44-12.03 42.85-11.22 11.91.68 18.78 2.86 42.04 13.86 30.58 14.44 43.41 17.64 74.57 18.67 28.42 1.03 46.98-2.29 68.28-12.14 45.59-21.08 79.28-64.15 93.82-119.83 6.77-25.77 6.99-70.68.58-98.52m0 0c-12.61-54.3-43.99-95.88-88.22-116.85-23.48-11.11-45.13-14.88-79.38-13.97-33.11.92-47.43 4.47-82.72 20.28-29.31 13.28-36.08 13.28-64.48 0-34.37-16.05-49.84-19.6-87.07-20.05-13.52-.23-26.12-.12-28.07.11-14.89 2.18-33.91 7.56-46.28 13.17-19.59 8.94-42.96 28.65-58.77 49.61-14.66 19.59-25.09 44.22-31.5 74.57-2.87 13.64-3.09 17.07-3.09 40.1-.12 27.03 1.26 38.15 6.99 57.86 14.66 50.74 44.79 89.23 86.95 110.66 24.63 12.48 41.12 15.91 72.4 15.11 31.84-.91 44.79-4.34 81.1-21.42 20.96-9.74 29.44-12.03 42.85-11.22 11.91.68 18.78 2.86 42.04 13.86 30.58 14.44 43.41 17.64 74.57 18.67 28.42 1.03 46.98-2.29 68.28-12.14 45.59-21.08 79.28-64.15 93.82-119.83 6.77-25.77 6.99-70.68.58-98.52"/><path fill="#FF9500" d="M1409.99 730.6c-10.99-55.56-62.77-142.05-149.61-250.19-114.9-142.85-264.28-284.9-320.07-304.03-7.56-2.64-19.25-2.98-26.35-.69-55.1 17.3-207.58 161.87-323.97 307.13-94.05 117.42-146.86 210.67-149.38 264.05-1.37 28.87 6.64 40.67 38.38 56.59 28.18 14.09 74.23 25.2 131.39 31.62 12.03 1.26 22.34 2.52 23.03 2.86 1.6.46 17.76 41.13 24.4 61.29 2.64 7.91 7.22 23.37 10.2 34.37l5.49 20.05 4.82 1.6c2.86.92 7.21 3.78 10.65 7.1 17.3 16.84 14.78 40.21-5.5 49.84-5.61 2.63-6.07 3.2-7.79 9.39-1.03 3.55-4.47 12.26-7.56 19.24-3.09 7.11-5.61 13.41-5.61 14.1 0 .57 2.52 3.55 5.73 6.52 7.67 7.22 11.22 14.9 12.83 27.5 1.14 9.39 1.03 10.77-1.26 16.49-4.36 11.58-12.95 19.02-25.44 22.34-3.2.92-6.07 1.84-6.41 2.07-1.03 1.14 3.44 15.46 7.67 24.51 5.85 12.37 11.23 20.39 20.74 30.59 7.56 8.13 22.22 20.62 34.94 29.67l5.84 4.24 10.77-9.05c17.87-14.9 35.74-37.81 46.28-59 2.75-5.73 6.87-16.5 8.94-24.06 4.35-15.12 4.12-15.35 6.07 3.9.46 4.12 1.03 7.79 1.26 8.25.23.45 2.86-.35 5.84-1.84 7.9-4.01 14.32-5.5 24.17-5.5 25.66.12 51.9 22.34 56.36 48 1.72 9.4-.11 17.76-5.72 26.35-6.76 10.54-12.83 14.78-27.96 19.82-4.23 1.37-7.56 3.09-7.33 3.78.8 2.52 19.48 12.26 23.49 12.26 7.56 0 22.11-9.17 32.19-20.16 15.23-16.73 28.18-48.35 32.19-78.59 1.83-13.75 2.86-15.58 3.78-6.53 2.29 24.63 13.63 57.51 26.12 75.49 11.45 16.61 28.52 29.67 38.72 29.79 10.08 0 34.36-18.9 45.25-35.4 13.86-20.96 22.45-47.54 26-80.3l1.38-12.72 5.95 17.87c3.21 9.85 6.65 18.56 7.56 19.47 1.38 1.38 2.53 1.15 8.94-2.06 6.07-2.98 8.59-3.55 15.47-3.66 6.87 0 9.39.57 15.8 3.66 9.4 4.47 18.45 12.72 22.46 20.39 6.41 12.49 2.63 31.05-7.68 37.92-5.15 3.44-5.73 4.93-2.63 7.68 3.21 2.86 6.18 2.4 12.94-2.18 20.97-14.09 42.5-36.77 51.21-53.84l2.41-4.7-12.15-.68c-10.88-.46-12.83-.92-20.39-4.7-27.61-13.63-34.02-49.49-14.2-79.05 7.21-10.88 14.09-16.95 25.08-22.11 4.7-2.29 8.71-4.23 8.82-4.35.23-.11-1.48-4.81-3.55-10.42-2.17-5.62-4.35-11.8-4.92-13.64-.8-2.86-2.06-3.78-8.14-5.95-14.43-4.93-21.53-12.38-22.68-23.95-1.95-17.98 9.51-32.76 26.58-34.48 3.44-.34 6.64-1.26 7.1-1.94.57-.69 2.18-5.73 3.44-11.23 9.16-37.23 31.04-97.6 37.23-102.64.8-.69 12.6-2.64 26.12-4.24 93.02-11.12 149.84-32.19 162.78-60.72 3.56-7.79 4.36-29.33 1.49-43.19m-678.75 454.45c-3.09 1.72-6.07 2.29-12.83 2.29-7.9 0-9.16-.34-13.75-3.43-7.44-5.39-10.53-11.69-10.53-22.23.11-12.6 4.58-20.39 14.2-24.74 9.51-4.24 25.43 3.43 30.93 15.01 5.04 10.42.8 27.83-8.02 33.1m73.09-127.04c-9.05 8.36-25.78 12.26-34.02 8.02-7.34-3.9-15.01-16.27-15.93-26.01-1.03-10.99 8.71-24.97 20.74-29.55 7.9-2.98 20.27-3.1 26.69-.23 5.84 2.63 9.16 6.76 11.34 14.2 3.9 13.06.8 24.75-8.82 33.57m110.32 63.92c-11 6.99-27.72 8.94-36.32 4.47-5.72-2.98-12.37-10.31-14.77-16.04-3.21-7.56-3.44-17.41-.81-26.35 4.36-14.2 14.55-25.31 26.35-28.52 6.76-1.84 12.83-1.15 20.51 2.52 11.11 5.27 17.64 16.84 18.44 32.65.8 15.46-3.32 24.97-13.4 31.27m29.44-89.47c-3.21-1.72-7.33-5.15-9.05-7.56-9.97-13.86-3.78-35.74 12.14-42.73 5.16-2.29 14.89-1.95 19.82.57 9.85 5.04 17.41 17.65 17.41 28.76-.11 20.62-20.96 31.5-40.32 20.96m61.86 146.29c-.69 10.88-3.89 17.76-9.62 20.16-5.27 2.18-17.53 2.29-21.77.12-7.1-3.67-12.94-13.63-13.06-22.11 0-6.42 6.19-18.56 11.34-22 8.48-5.61 22.57-1.14 29.79 9.51 3.66 5.5 3.78 6.07 3.32 14.32m83.63-115.47c-8.71 14.78-31.39 24.51-43.65 18.67-13.63-6.41-22.11-28.64-16.27-42.73 3.44-8.13 14.78-17.3 25.78-20.96 5.73-1.95 17.87-.35 24.86 3.09 5.61 2.75 7.1 4.24 9.51 9.05 2.4 4.93 2.86 7.33 2.86 16.61 0 9.85-.34 11.46-3.09 16.27m118.56-268.87c-14.54 55.68-48.23 98.75-93.82 119.83-21.3 9.85-39.86 13.17-68.28 12.14-31.16-1.03-43.99-4.23-74.57-18.67-23.26-11-30.13-13.18-42.04-13.86-13.41-.81-21.89 1.48-42.85 11.22-36.31 17.08-49.26 20.51-81.1 21.42-31.28.8-47.77-2.63-72.4-15.11-42.16-21.43-72.29-59.92-86.95-110.66-5.73-19.71-7.11-30.83-6.99-57.86 0-23.03.22-26.46 3.09-40.1 6.41-30.35 16.84-54.98 31.5-74.57 15.81-20.96 39.18-40.67 58.77-49.61 12.37-5.61 31.39-10.99 46.28-13.17 1.95-.23 14.55-.34 28.07-.11 37.23.45 52.7 4 87.07 20.05 28.4 13.28 35.17 13.28 64.48 0 35.29-15.81 49.61-19.36 82.72-20.28 34.25-.91 55.9 2.86 79.38 13.97 44.23 20.97 75.61 62.55 88.22 116.85 6.41 27.84 6.19 72.75-.58 98.52"/><path fill="#fff" d="M1208.14 794.41c-14.54 55.68-48.23 98.75-93.82 119.83-21.3 9.85-39.86 13.17-68.28 12.14-31.16-1.03-43.99-4.23-74.57-18.67-23.26-11-30.13-13.18-42.04-13.86-13.41-.81-21.89 1.48-42.85 11.22-36.31 17.08-49.26 20.51-81.1 21.42-31.28.8-47.77-2.63-72.4-15.11-42.16-21.43-72.29-59.92-86.95-110.66-5.73-19.71-7.11-30.83-6.99-57.86 0-23.03.22-26.46 3.09-40.1 6.41-30.35 16.84-54.98 31.5-74.57 15.81-20.96 39.18-40.67 58.77-49.61 12.37-5.61 31.39-10.99 46.28-13.17 1.95-.23 14.55-.34 28.07-.11 37.23.45 52.7 4 87.07 20.05 28.4 13.28 35.17 13.28 64.48 0 35.29-15.81 49.61-19.36 82.72-20.28 34.25-.91 55.9 2.86 79.38 13.97 44.23 20.97 75.61 62.55 88.22 116.85 6.41 27.84 6.19 72.75-.58 98.52"/><path fill="#000" d="M1208.72 695.89c-12.61-54.3-43.99-95.88-88.22-116.85-23.48-11.11-45.13-14.88-79.38-13.97-33.11.92-47.43 4.47-82.72 20.28-29.31 13.28-36.08 13.28-64.48 0-34.37-16.05-49.84-19.6-87.07-20.05-13.52-.23-26.12-.12-28.07.11-14.89 2.18-33.91 7.56-46.28 13.17-19.59 8.94-42.96 28.65-58.77 49.61-14.66 19.59-25.09 44.22-31.5 74.57-2.87 13.64-3.09 17.07-3.09 40.1-.12 27.03 1.26 38.15 6.99 57.86 14.66 50.74 44.79 89.23 86.95 110.66 24.63 12.48 41.12 15.91 72.4 15.11 31.84-.91 44.79-4.34 81.1-21.42 20.96-9.74 29.44-12.03 42.85-11.22 11.91.68 18.78 2.86 42.04 13.86 30.58 14.44 43.41 17.64 74.57 18.67 28.42 1.03 46.98-2.29 68.28-12.14 45.59-21.08 79.28-64.15 93.82-119.83 6.77-25.77 6.99-70.68.58-98.52m-30.93 84.2c-17.07 48.23-54.19 82.48-100.58 92.91-37.46 8.37-75.27 0-106.88-23.71-15.24-11.46-33.69-32.76-40.68-47.08-1.6-3.33-3.31-5.73-3.89-5.39-.57.34-2.41 3.54-4.24 7.22-4.36 8.47-15.35 23.25-23.82 31.84-15.71 16.04-41.02 30.81-62.78 36.55-9.97 2.75-13.87 3.09-29.79 3.2-11.22 0-20.96-.45-25.2-1.37-56.71-12.37-98.29-54.99-110.66-113.65-3.56-16.95-3.67-44.9-.12-61.28 6.65-31.16 20.16-57.05 40.33-77.32 23.14-23.38 45.7-34.25 81.33-39.41 7.1-1.03 22.12-.58 32.42 1.02 25.21 3.78 45.82 13.76 68.74 33.11 8.48 7.22 22.56 24.52 28.29 34.95 2.87 5.04 5.38 9.28 5.72 9.28.36 0 2.65-3.44 5.16-7.68 24.06-41.01 61.41-65.98 105.62-70.57 61.64-6.18 120.4 33.79 141.14 96.11 6.3 18.79 7.56 27.61 7.56 50.87s-1.49 32.76-7.67 50.4"/><path fill="#fff" d="M1177.9 678.82c-20.73-62.33-79.5-102.3-141.13-96.12-44.21 4.59-81.57 29.56-105.62 70.57-2.51 4.24-4.8 7.68-5.16 7.68s-2.86-4.24-5.72-9.28c-5.73-10.43-19.82-27.73-28.3-34.94-22.92-19.36-43.53-29.33-68.74-33.11-10.3-1.6-25.31-2.06-32.42-1.02-35.63 5.16-58.19 16.03-81.33 39.41-20.17 20.27-33.68 46.16-40.32 77.33-3.55 16.38-3.44 44.33.12 61.28 12.37 58.66 53.95 101.28 110.66 113.64 4.24.92 13.98 1.37 25.2 1.37 15.93-.12 19.83-.46 29.79-3.21 21.77-5.73 47.08-20.51 62.78-36.54 8.47-8.6 19.46-23.37 23.82-31.84 1.83-3.68 3.66-6.88 4.24-7.22s2.29 2.07 3.89 5.39c6.99 14.32 25.44 35.63 40.68 47.08 31.61 23.72 69.42 32.08 106.88 23.72 46.4-10.43 83.52-44.68 100.58-92.91 6.18-17.64 7.67-27.03 7.67-50.4s-1.26-32.08-7.56-50.86zm-285.47 6.19c-2.63 51.78-61.75 86.15-110.2 64.26-22-9.97-39.07-29.21-44.68-50.52-2.17-8.14-2.17-26.23 0-34.37 2.29-8.82 7.56-19.02 13.98-26.92 9.97-12.25 27.84-23.94 42.27-27.38 10.2-2.51 30.35-2.29 40.78.35 35.17 9.05 59.57 40.55 57.85 74.58m221.21 18.55c-19.02 49.96-78.36 68.06-121.77 37.01-14.44-10.31-25.55-25.9-29.79-41.82-2.17-8.14-2.17-26.23 0-34.37 2.41-9.16 8.02-19.82 14.55-27.6 9.97-12.03 27.26-23.14 41.7-26.81 10.08-2.52 35.29-1.73 45.14 1.48 17.41 5.73 34.48 19.13 43.3 34.15 8.02 13.63 9.97 20.73 9.85 36.54 0 11.91-.34 14.78-2.98 21.41z"/><path fill="#000" d="M892.43 685.01c-2.63 51.78-61.75 86.15-110.2 64.26-22-9.97-39.07-29.21-44.68-50.52-2.17-8.14-2.17-26.23 0-34.37 2.29-8.82 7.56-19.02 13.98-26.92 9.97-12.25 27.84-23.94 42.27-27.38 10.2-2.51 30.35-2.29 40.78.35 35.17 9.05 59.57 40.55 57.85 74.58m224.18-2.86c0 11.91-.34 14.78-2.98 21.41-19.02 49.96-78.36 68.06-121.77 37.01-14.44-10.31-25.55-25.9-29.79-41.82-2.17-8.14-2.17-26.23 0-34.37 2.41-9.16 8.02-19.82 14.55-27.6 9.97-12.03 27.26-23.14 41.7-26.81 10.08-2.52 35.29-1.73 45.14 1.48 17.41 5.73 34.48 19.13 43.3 34.15 8.02 13.63 9.97 20.73 9.85 36.54z"/><path fill="#000" d="M1431.07 638.04c-47.31-93.48-126.81-196.46-241.37-312.85-90.16-91.65-167.83-154.2-219.38-176.54-22.91-9.96-44.67-13.4-60.94-9.62-36.43 8.48-89.93 42.5-152.94 97.49-55.1 48-139.18 133.34-190.85 193.6-88.21 102.99-151.33 204.26-173.9 279.06-6.53 21.65-8.02 31.28-8.02 53.16s1.15 29.55 6.19 41.81c11.57 28.07 34.71 46.51 71.03 56.48 28.75 8.01 82.36 13.4 131.97 13.4h19.13l1.72 5.96c9.39 32.42 11.45 48.91 11.57 91.99v35.51l-5.85 12.03c-29.09 59.8-33.22 109.86-12.6 152.93 14.78 30.93 41.59 60.95 79.16 88.9 12.37 9.16 28.98 19.36 31.5 19.36 1.04 0 6.08-2.64 11.35-5.85 20.5-12.6 35.97-31.73 44.79-55.44 1.6-4.47 3.66-8.02 4.47-8.02s3.09 4.35 5.15 10.31c7.91 21.88 17.3 36.43 33.68 52.35 13.98 13.52 38.03 29.56 44.33 29.56 2.3 0 14.55-6.19 21.2-10.65 2.86-1.95 8.93-7.11 13.63-11.58 13.4-12.94 20.85-25.08 25.89-42.61 1.6-5.5 3.21-10.31 3.44-10.65 1.26-1.15 2.75 1.94 5.04 10.53 6.76 24.86 24.17 46.4 48.45 59.69 10.66 5.96 15.13 5.73 26.81-1.38 32.19-19.24 53.61-45.02 64.04-76.63 1.72-5.39 3.66-9.51 4.58-9.51.8 0 2.86 4.01 4.58 8.93 8.48 24.29 27.04 46.17 48.69 57.4l8.59 4.46 13.75-9.16c57.96-38.95 94.39-82.48 105.05-125.56 3.43-13.51 3.66-50.74.57-65.18-2.63-12.14-10.88-36.08-18.56-54.18-9.74-22.57-10.31-25.78-10.19-57.86.11-35.74 3.2-60.14 10.88-86.14l2.52-8.25 5.84-.57c3.21-.35 17.41-.92 31.62-1.26 97.14-2.41 140.56-13.87 169.2-44.57 13.63-14.55 20.51-31.16 22-53.27 2.63-39.17-8.71-80.19-37.81-137.58m-22.57 135.75c-12.94 28.53-69.76 49.6-162.78 60.72-13.52 1.6-25.32 3.55-26.12 4.24-6.19 5.04-28.07 65.41-37.23 102.64-1.26 5.5-2.87 10.54-3.44 11.23-.46.68-3.66 1.6-7.1 1.94-17.07 1.72-28.53 16.5-26.58 34.48 1.15 11.57 8.25 19.02 22.68 23.95 6.08 2.17 7.34 3.09 8.14 5.95.57 1.84 2.75 8.02 4.92 13.64 2.07 5.61 3.78 10.31 3.55 10.42-.11.12-4.12 2.06-8.82 4.35-10.99 5.16-17.87 11.23-25.08 22.11-19.82 29.56-13.41 65.42 14.2 79.05 7.56 3.78 9.51 4.24 20.39 4.7l12.15.68-2.41 4.7c-8.71 17.07-30.24 39.75-51.21 53.84-6.76 4.58-9.73 5.04-12.94 2.18-3.1-2.75-2.52-4.24 2.63-7.68 10.31-6.87 14.09-25.43 7.68-37.92-4.01-7.67-13.06-15.92-22.46-20.39-6.41-3.09-8.93-3.66-15.8-3.66-6.88.11-9.4.68-15.47 3.66-6.41 3.21-7.56 3.44-8.94 2.06-.91-.91-4.35-9.62-7.56-19.47l-5.95-17.87-1.38 12.72c-3.55 32.76-12.14 59.34-26 80.3-10.89 16.5-35.17 35.4-45.25 35.4-10.2-.12-27.27-13.18-38.72-29.79-12.49-17.98-23.83-50.86-26.12-75.49-.92-9.05-1.95-7.22-3.78 6.53-4.01 30.24-16.96 61.86-32.19 78.59-10.08 10.99-24.63 20.16-32.19 20.16-4.01 0-22.69-9.74-23.49-12.26-.23-.69 3.1-2.41 7.33-3.78 15.13-5.04 21.2-9.28 27.96-19.82 5.61-8.59 7.44-16.95 5.72-26.35-4.46-25.66-30.7-47.88-56.36-48-9.85 0-16.27 1.49-24.17 5.5-2.98 1.49-5.61 2.29-5.84 1.84-.23-.46-.8-4.13-1.26-8.25-1.95-19.25-1.72-19.02-6.07-3.9-2.07 7.56-6.19 18.33-8.94 24.06-10.54 21.19-28.41 44.1-46.28 59l-10.77 9.05-5.84-4.24c-12.72-9.05-27.38-21.54-34.94-29.67-9.51-10.2-14.89-18.22-20.74-30.59-4.23-9.05-8.7-23.37-7.67-24.51.34-.23 3.21-1.15 6.41-2.07 12.49-3.32 21.08-10.76 25.44-22.34 2.29-5.72 2.4-7.1 1.26-16.49-1.61-12.6-5.16-20.28-12.83-27.5-3.21-2.97-5.73-5.95-5.73-6.52 0-.69 2.52-6.99 5.61-14.1 3.09-6.98 6.53-15.69 7.56-19.24 1.72-6.19 2.18-6.76 7.79-9.39 20.28-9.63 22.8-33 5.5-49.84-3.44-3.32-7.79-6.18-10.65-7.1l-4.82-1.6-5.49-20.05c-2.98-11-7.56-26.46-10.2-34.37-6.64-20.16-22.8-60.83-24.4-61.29-.69-.34-11-1.6-23.03-2.86-57.16-6.42-103.21-17.53-131.39-31.62-31.74-15.92-39.75-27.72-38.38-56.59 2.52-53.38 55.33-146.63 149.38-264.05 116.39-145.26 268.87-289.83 323.97-307.13 7.1-2.29 18.79-1.95 26.35.69 55.79 19.13 205.17 161.18 320.07 304.03 86.84 108.14 138.62 194.63 149.61 250.19 2.87 13.86 2.07 35.4-1.49 43.19M984.41 1011.5c-.11 20.62-20.96 31.5-40.32 20.96-3.21-1.72-7.33-5.15-9.05-7.56-9.97-13.86-3.78-35.74 12.14-42.73 5.16-2.29 14.89-1.95 19.82.57 9.85 5.04 17.41 17.65 17.41 28.76m-180.08 46.51c-9.05 8.36-25.78 12.26-34.02 8.02-7.34-3.9-15.01-16.27-15.93-26.01-1.03-10.99 8.71-24.97 20.74-29.55 7.9-2.98 20.27-3.1 26.69-.23 5.84 2.63 9.16 6.76 11.34 14.2 3.9 13.06.8 24.75-8.82 33.57m288.34-11c0 9.85-.34 11.46-3.09 16.27-8.71 14.78-31.39 24.51-43.65 18.67-13.63-6.41-22.11-28.64-16.27-42.73 3.44-8.13 14.78-17.3 25.78-20.96 5.73-1.95 17.87-.35 24.86 3.09 5.61 2.75 7.1 4.24 9.51 9.05 2.4 4.93 2.86 7.33 2.86 16.61m-178.02 74.92c-11 6.99-27.72 8.94-36.32 4.47-5.72-2.98-12.37-10.31-14.77-16.04-3.21-7.56-3.44-17.41-.81-26.35 4.36-14.2 14.55-25.31 26.35-28.52 6.76-1.84 12.83-1.15 20.51 2.52 11.11 5.27 17.64 16.84 18.44 32.65.8 15.46-3.32 24.97-13.4 31.27m-183.41 63.12c-3.09 1.72-6.07 2.29-12.83 2.29-7.9 0-9.16-.34-13.75-3.43-7.44-5.39-10.53-11.69-10.53-22.23.11-12.6 4.58-20.39 14.2-24.74 9.51-4.24 25.43 3.43 30.93 15.01 5.04 10.42.8 27.83-8.02 33.1m274.71-6.3c-.69 10.88-3.89 17.76-9.62 20.16-5.27 2.18-17.53 2.29-21.77.12-7.1-3.67-12.94-13.63-13.06-22.11 0-6.42 6.19-18.56 11.34-22 8.48-5.61 22.57-1.14 29.79 9.51 3.66 5.5 3.78 6.07 3.32 14.32"/></g><defs><clipPath id="a"><rect width="1024" height="1024" fill="#fff" rx="229.069"/></clipPath></defs></svg>
