<svg
  width="1086"
  height="1167"
  viewBox="0 0 1086 1167"
  fill="none"
  xmlns="http://www.w3.org/2000/svg"
>

  <!-- 4. The black "eyes frame" -->
  <path
    d="M825.05 558.357C812.44 504.057 781.06 462.477 736.83 441.507C713.35 430.397 691.7 426.627 657.45 427.537C624.34 428.457 610.02 432.007 574.73 447.817C545.42 461.097 538.65 461.097 510.25 447.817C475.88 431.767 460.41 428.217 423.18 427.767C409.66 427.537 397.06 427.647 395.11 427.877C380.22 430.057 361.2 435.437 348.83 441.047C329.24 449.987 305.87 469.697 290.06 490.657C275.4 510.247 264.97 534.877 258.56 565.227C255.69 578.867 255.47 582.297 255.47 605.327C255.35 632.357 256.73 643.477 262.46 663.187C277.12 713.927 307.25 752.417 349.41 773.847C374.04 786.327 390.53 789.757 421.81 788.957C453.65 788.047 466.6 784.617 502.91 767.537C523.87 757.797 532.35 755.507 545.76 756.317C557.67 756.997 564.54 759.177 587.8 770.177C618.38 784.617 631.21 787.817 662.37 788.847C690.79 789.877 709.35 786.557 730.65 776.707C776.24 755.627 809.93 712.557 824.47 656.877C831.24 631.107 831.46 586.197 825.05 558.357Z"
    fill="black"
  />

</svg>
