<?xml version="1.0" encoding="UTF-8"?>
<svg version="1.1" xmlns="http://www.w3.org/2000/svg" width="1024" height="1024">
<path d="M0 0 C6.69014874 4.59934631 13.51891228 8.98438784 20.33319092 13.39657593 C25.49160503 16.73758939 30.63163616 20.10597502 35.76556396 23.48446655 C36.60354523 24.03586304 37.44152649 24.58725952 38.30490112 25.15536499 C42.6865434 28.04013452 47.06583474 30.92845417 51.44403076 33.81845093 C52.33525131 34.40671661 53.22647186 34.9949823 54.1446991 35.60107422 C55.90273932 36.76155377 57.66068603 37.922175 59.41853333 39.08294678 C64.09271162 42.16721441 68.7778607 45.23270285 73.48040771 48.27352905 C94.6330633 62.00260807 111.73233555 78.42930597 117.4989624 103.98861694 C121.74372833 125.94523241 117.52285185 146.86091414 105.45013428 165.55331421 C101.52956092 171.30002288 97.1835913 176.30823 92.15228271 181.0821228 C87.24508637 186.45318347 84.46264131 192.89322115 84.45054245 200.13823891 C84.4467013 201.00391822 84.44286016 201.86959752 84.43890262 202.76150954 C84.44020234 204.18123346 84.44020234 204.18123346 84.44152832 205.62963867 C84.4385572 206.6387217 84.43558608 207.64780473 84.43252492 208.68746603 C84.4238325 212.07895501 84.4223292 215.47040871 84.4208374 218.86190796 C84.41620956 221.28959224 84.41118495 223.71727579 84.40579224 226.1449585 C84.39266173 232.74848743 84.38618505 239.35200901 84.38178158 245.95554781 C84.37901733 250.08107793 84.37477959 254.20660571 84.3702774 258.33213425 C84.3580846 269.76036494 84.34778602 281.18859377 84.34440231 292.61683083 C84.34418275 293.34814231 84.34396318 294.0794538 84.34373696 294.83292624 C84.34351868 295.56596634 84.34330041 296.29900645 84.34307551 297.0542599 C84.34263205 298.53962175 84.34218549 300.02498361 84.34173584 301.51034546 C84.34151441 302.24713281 84.34129298 302.98392017 84.34106484 303.74303441 C84.33711948 315.67326056 84.31967352 327.60342553 84.29637632 339.53362806 C84.27263612 351.78991991 84.26019921 364.04618111 84.2590344 376.30249631 C84.25811902 383.18077957 84.25240154 390.05898316 84.23421478 396.93724442 C84.21716034 403.40999784 84.21558114 409.88264059 84.22435379 416.35541153 C84.22512393 418.7281281 84.2207845 421.1008528 84.21089554 423.47354889 C84.1981639 426.71928004 84.20405991 429.96447724 84.21447754 433.21020508 C84.20642113 434.14330336 84.19836473 435.07640165 84.19006419 436.03777564 C84.25111261 444.20239154 85.59329931 451.23166318 90.58197021 457.8008728 C90.58197021 458.4608728 90.58197021 459.1208728 90.58197021 459.8008728 C91.11822021 460.0689978 91.65447021 460.3371228 92.20697021 460.6133728 C93.99047877 461.50512708 95.7590022 462.42695365 97.51947021 463.3633728 C104.64189001 466.70654944 112.81462993 466.86095596 120.33197021 464.6133728 C127.09133591 462.03837635 130.84182224 458.12760723 133.82025146 451.6680603 C135.24656244 448.17176981 135.80850781 444.99944843 136.17645264 441.25350952 C137.06456382 432.53549981 138.20608619 425.76308948 144.76947021 419.4883728 C151.84518427 413.97502448 159.81640758 412.88884894 168.58197021 413.8008728 C175.09501192 415.04540307 180.23515099 417.74275589 184.58197021 422.8008728 C191.90366591 434.55119295 190.49277274 448.25002485 187.55462646 461.27352905 C181.76584796 482.26656919 169.12583328 498.74281458 150.58197021 509.8008728 C130.99148451 520.54670884 107.99187117 522.70650348 86.58197021 516.8008728 C65.26003036 510.27245169 49.14514024 496.19198984 38.58197021 476.8008728 C29.48731896 458.2468725 30.17399755 438.43158146 30.37597656 418.28341675 C30.40714468 414.83681957 30.42063445 411.39015065 30.43548584 407.94345093 C30.46566813 401.22889636 30.5244348 394.51546887 30.58197021 387.8008728 C22.00197021 387.8008728 13.42197021 387.8008728 4.58197021 387.8008728 C4.60291748 390.2878772 4.62386475 392.77488159 4.64544678 395.33724976 C4.71195527 403.58731609 4.75600048 411.83739477 4.7892189 420.08765888 C4.81002501 425.08604009 4.83821416 430.08414481 4.88372803 435.08236694 C4.92743593 439.91291683 4.95115969 444.74320206 4.96147919 449.57393456 C4.96882603 451.40979358 4.98317188 453.2456394 5.00489044 455.08138466 C5.2589479 477.46116019 5.2589479 477.46116019 -1.32885742 484.98246765 C-7.68299637 491.05838231 -13.12108543 492.9617006 -21.79302979 493.2383728 C-29.32790893 493.05260162 -34.70791538 492.08905263 -40.41021729 487.0352478 C-46.84045118 480.25815482 -48.88708582 473.21506465 -48.75860596 464.0899353 C-48.75904404 463.25971359 -48.75948212 462.42949188 -48.75993347 461.57411194 C-48.75786045 458.8577844 -48.73460052 456.14209115 -48.71099854 453.4258728 C-48.70539728 451.53158912 -48.70112968 449.63730107 -48.69813538 447.74301147 C-48.68672832 442.77814555 -48.65729704 437.81354651 -48.62402344 432.8487854 C-48.593233 427.7742575 -48.57961092 422.69968612 -48.56451416 417.62509155 C-48.53242309 407.68354969 -48.47968925 397.74227529 -48.41802979 387.8008728 C-56.99802979 387.8008728 -65.57802979 387.8008728 -74.41802979 387.8008728 C-74.40755615 390.13641235 -74.39708252 392.4719519 -74.3862915 394.87826538 C-74.353024 402.62945884 -74.33100931 410.38065559 -74.31440544 418.13190174 C-74.30400648 422.82750566 -74.28991898 427.52303589 -74.26715088 432.21859741 C-74.24528299 436.75735375 -74.23343198 441.2960396 -74.2282753 445.83484459 C-74.22460442 447.55902909 -74.21743673 449.28321011 -74.20656967 451.00736427 C-74.0454123 477.65709319 -74.0454123 477.65709319 -82.41802979 486.8008728 C-90.48689036 493.28699535 -98.29679927 493.42493971 -108.41802979 492.8008728 C-113.88985161 491.70822914 -118.79957219 489.09395808 -122.41802979 484.8008728 C-127.77529518 476.40299731 -128.58107833 468.41987549 -128.53155518 458.64071655 C-128.5317012 457.86901627 -128.53184723 457.09731598 -128.53199768 456.30223083 C-128.53130746 453.78091506 -128.5235573 451.25967549 -128.51568604 448.7383728 C-128.51381868 446.97860759 -128.51239628 445.21884185 -128.51139832 443.45907593 C-128.50759811 438.84942159 -128.49778938 434.23979925 -128.48669434 429.63015747 C-128.4764263 424.91753573 -128.47188918 420.20490878 -128.46685791 415.49227905 C-128.45616466 406.26179405 -128.43858833 397.03134111 -128.41802979 387.8008728 C-136.99802979 387.8008728 -145.57802979 387.8008728 -154.41802979 387.8008728 C-154.39446411 390.50029053 -154.39446411 390.50029053 -154.37042236 393.25424194 C-154.32166149 399.26116086 -154.28740268 405.26802275 -154.26259327 411.27507877 C-154.24706725 414.91017471 -154.22607467 418.54505266 -154.19171143 422.18002319 C-154.15864305 425.70084653 -154.14107916 429.22146285 -154.13339806 432.74242973 C-154.12531686 434.71120417 -154.1019777 436.6798976 -154.07814026 438.64854431 C-154.07410987 460.70704151 -161.30898884 481.07326795 -176.69146729 497.1993103 C-189.93623578 509.83686878 -207.83207713 518.99132133 -226.41802979 519.8008728 C-227.40674072 519.8524353 -228.39545166 519.9039978 -229.41412354 519.9571228 C-253.25528324 520.60659821 -273.71342235 513.09827983 -291.16802979 496.6133728 C-304.61311823 482.56070747 -312.00310129 465.17191764 -313.41802979 445.8008728 C-313.47217041 445.06997437 -313.52631104 444.33907593 -313.58209229 443.58602905 C-313.91639318 434.93979226 -311.63917718 427.25076173 -306.16412354 420.49227905 C-299.89502348 414.41952665 -291.95137746 413.41925974 -283.58599854 413.53134155 C-276.57003099 414.12826111 -271.28596504 416.43596871 -266.48052979 421.6133728 C-261.70274597 427.30680069 -260.07695958 433.46802418 -259.48052979 440.7383728 C-258.61948135 448.79881981 -257.16977647 454.43534299 -251.23052979 460.1133728 C-245.50511543 464.5936011 -238.96888342 466.37645346 -231.74615479 466.08602905 C-224.4347897 465.1905095 -218.48710774 463.23202776 -213.41802979 457.8008728 C-210.46697557 452.95203453 -208.29593726 448.22483999 -208.28660202 442.48726368 C-208.2808403 441.15853063 -208.2808403 441.15853063 -208.27496219 439.80295449 C-208.27582867 438.82884911 -208.27669515 437.85474373 -208.27758789 436.85112 C-208.27461677 435.81697895 -208.27164565 434.7828379 -208.26858449 433.71735924 C-208.2598791 430.23517924 -208.25838768 426.75303354 -208.25689697 423.27084351 C-208.25227007 420.78094916 -208.24724558 418.29105552 -208.24185181 415.80116272 C-208.22871271 409.02415853 -208.22224319 402.24716782 -208.21784115 395.47015405 C-208.21507864 391.23794126 -208.21084122 387.00573076 -208.20633698 382.77351952 C-208.19414313 371.05451889 -208.18384462 359.33552009 -208.18046188 347.61651325 C-208.18024232 346.86635785 -208.18002275 346.11620246 -208.17979653 345.34331508 C-208.17957825 344.59136626 -208.17935998 343.83941745 -208.17913508 343.0646823 C-208.17869162 341.54095479 -208.17824506 340.01722727 -208.17779541 338.49349976 C-208.17757398 337.73767859 -208.17735255 336.98185743 -208.17712441 336.20313259 C-208.17317795 323.9610992 -208.15572908 311.71912539 -208.13243589 299.47711501 C-208.10871112 286.90672109 -208.09625949 274.33635704 -208.09509397 261.76594037 C-208.09417774 254.70885454 -208.08843891 247.65184631 -208.07027435 240.59478188 C-208.05324523 233.9554293 -208.05162921 227.31619789 -208.06041336 220.67682076 C-208.06118476 218.24037533 -208.05682758 215.80392204 -208.04695511 213.36749649 C-208.03426325 210.04000311 -208.04009791 206.71303353 -208.05053711 203.38554382 C-208.0424807 202.42259205 -208.0344243 201.45964027 -208.02612376 200.46750814 C-208.09185912 191.50114552 -210.39378553 185.26127294 -216.54302979 178.5508728 C-217.53224505 177.42001243 -218.51918587 176.28715888 -219.50396729 175.1524353 C-220.24018311 174.30987183 -220.24018311 174.30987183 -220.99127197 173.45028687 C-231.41406752 161.40093595 -238.49001824 148.56528696 -241.41802979 132.8008728 C-241.5482251 132.10864624 -241.67842041 131.41641968 -241.81256104 130.70321655 C-242.11641865 128.73016777 -242.29512262 126.79345859 -242.41802979 124.8008728 C-242.47088135 123.95653687 -242.52373291 123.11220093 -242.57818604 122.24227905 C-243.2204486 101.66195238 -236.5732686 83.97865024 -223.32818604 68.3321228 C-215.32233498 59.86410902 -205.27683356 53.67736998 -195.62115479 47.2696228 C-187.49043087 41.86057049 -179.39464006 36.40036743 -171.30267334 30.93356323 C-168.72478261 29.19227384 -166.14617806 27.45204558 -163.56744385 25.71200562 C-155.5585342 20.3067059 -147.55300388 14.89661195 -139.56185913 9.46507263 C-136.2263512 7.19816327 -132.88902656 4.93393591 -129.55163574 2.6697998 C-127.98421169 1.60521733 -126.41773601 0.53923695 -124.85229492 -0.52825928 C-80.75498579 -30.59721274 -43.60097095 -30.11161856 0 0 Z M-86.29302979 39.5508728 C-88.08127125 40.76774693 -89.87229837 41.98044996 -91.66340637 43.19309998 C-92.93230526 44.05254334 -94.20038673 44.91319467 -95.46769714 45.77497864 C-102.28046716 50.40391829 -109.16377992 54.92358511 -116.05340576 59.43701172 C-118.98257745 61.35608315 -121.90990505 63.27795854 -124.83731079 65.19972229 C-126.34277691 66.18798515 -127.84833186 67.17611269 -129.35397339 68.16410828 C-137.74938905 73.67321404 -146.13938426 79.19055542 -154.5284729 84.70928955 C-156.98341932 86.32416085 -159.43862915 87.93863105 -161.89385986 89.55307007 C-164.82635459 91.48133967 -167.75712531 93.41218479 -170.68658447 95.34506226 C-172.92017656 96.81821017 -175.15949828 98.27970255 -177.4072876 99.73129272 C-178.21262939 100.2544104 -179.01797119 100.77752808 -179.84771729 101.3164978 C-180.49724365 101.73318726 -181.14677002 102.14987671 -181.815979 102.57919312 C-185.32617729 105.2559734 -187.03409263 108.64906134 -188.41802979 112.8008728 C-189.32090476 122.52528033 -188.16627867 130.08198618 -182.01959229 137.82040405 C-180.62068413 139.46086655 -179.20283449 141.08215591 -177.77374268 142.69638062 C-172.56496817 148.62106945 -168.43727075 155.02906075 -164.41802979 161.8008728 C-163.91400635 162.62845093 -163.40998291 163.45602905 -162.89068604 164.3086853 C-153.43677968 181.26249914 -154.81970344 201.02304773 -154.84345651 219.77135658 C-154.84405634 223.78675264 -154.82126949 227.80201768 -154.80088806 231.81735229 C-154.76570946 239.39461954 -154.74949983 246.9717913 -154.74111289 254.54913092 C-154.72806211 265.70597536 -154.68985378 276.86274243 -154.64701366 288.01950836 C-154.64387498 288.83757446 -154.64073629 289.65564055 -154.63750249 290.49849653 C-154.6312235 292.12846511 -154.62487996 293.75843344 -154.61846989 295.38840151 C-154.60039762 300.16251245 -154.58929752 304.93657617 -154.58417284 309.71071815 C-154.58035426 312.66400227 -154.57274862 315.61726899 -154.56436539 318.57054329 C-154.5613949 319.94403379 -154.56017157 321.31752929 -154.56077766 322.69102287 C-154.56144005 324.55743659 -154.55558209 326.42384931 -154.54933167 328.29025269 C-154.54807439 329.33653084 -154.54681711 330.38280899 -154.54552174 331.46079254 C-154.6813974 333.76003593 -154.6813974 333.76003593 -153.41802979 334.8008728 C-151.00214005 334.89854665 -148.61487595 334.93083959 -146.1985321 334.92112732 C-145.43405339 334.92198174 -144.66957467 334.92283617 -143.88192993 334.92371649 C-141.30075961 334.9253736 -138.71965318 334.91984617 -136.13848877 334.91439819 C-134.29600018 334.91411635 -132.45351147 334.91427401 -130.61102295 334.9148407 C-125.59263742 334.91512877 -120.57427557 334.90923055 -115.55589557 334.90226674 C-110.31748241 334.89603473 -105.07906876 334.89542953 -99.84065247 334.89424133 C-89.91358487 334.89112756 -79.98652823 334.88291357 -70.05946547 334.87289184 C-58.76098883 334.86173212 -47.46251168 334.85622061 -36.16403091 334.85119641 C-12.91535778 334.84073099 10.3333056 334.82313067 33.58197021 334.8008728 C33.58555274 333.69929368 33.58555274 333.69929368 33.58920765 332.57546043 C33.64850881 314.65330866 33.72415469 296.73129282 33.81768513 278.80928612 C33.86252846 270.14210608 33.90196912 261.47496608 33.92840576 252.80770874 C33.95147914 245.2476927 33.9849802 237.6878046 34.03067178 230.12789023 C34.05447891 226.13007542 34.07328917 222.13238633 34.07958412 218.13450241 C34.08569223 214.36038457 34.10589443 210.58658788 34.13624573 206.81258965 C34.1490332 204.78997935 34.1474718 202.76729366 34.14524841 200.74464417 C34.4019319 175.37349153 45.41352539 155.35391631 62.01947021 136.9258728 C66.7418445 131.44096216 68.28625552 125.85760152 68.05072021 118.70321655 C66.50929869 109.15924826 60.16065308 102.28034664 52.58197021 96.8008728 C49.63471213 94.87576427 46.66400297 93.0091484 43.65838623 91.17733765 C37.20612053 87.23902549 30.92169092 83.07408273 24.64447021 78.8633728 C12.61888391 70.80711259 0.54611709 62.82391113 -11.54302979 54.8633728 C-12.40467743 54.29555084 -13.26632507 53.72772888 -14.15408325 53.1427002 C-18.31054648 50.40380865 -22.46940734 47.66873161 -26.6338501 44.94198608 C-29.83199932 42.84749689 -33.01699572 40.73479428 -36.19439697 38.60897827 C-37.70372669 37.6089744 -39.21316191 36.60912975 -40.72271729 35.60946655 C-41.39835724 35.1518544 -42.07399719 34.69424225 -42.77011108 34.22276306 C-48.28895573 30.5907862 -53.56848749 28.52233514 -60.29302979 28.4883728 C-61.05357666 28.47161499 -61.81412354 28.45485718 -62.59771729 28.43759155 C-71.89221166 29.63480482 -78.71054033 34.31017619 -86.29302979 39.5508728 Z " fill="#000000" transform="translate(574.4180297851563,244.19912719726563)"/>
<path d="M0 0 C6.99497097 5.08191683 11.38201255 10.96084401 13.078125 19.44140625 C13.95582759 28.26811347 10.78446597 34.9085864 5.328125 41.69140625 C0.55060217 46.60163805 -6.79869877 49.8010433 -13.671875 50.19140625 C-20.87028608 49.75513891 -27.93417936 46.43993339 -33.1328125 41.5 C-38.74341343 34.9068319 -40.46935739 28.39127504 -40.0859375 19.8046875 C-39.00132091 11.6495986 -35.17707165 5.67356082 -28.671875 0.69140625 C-19.72552501 -5.12372124 -9.24145307 -5.23185488 0 0 Z " fill="#000000" transform="translate(486.671875,423.30859375)"/>
<path d="M0 0 C7.50333819 3.8519811 11.76526094 8.69086001 15.1875 16.3125 C17.36758927 23.44608325 16.58449368 30.12494099 13.56640625 36.88671875 C9.37972204 44.25196207 3.80640182 48.20890246 -4.21484375 50.69140625 C-10.89856847 52.28946976 -16.69821697 51.28018987 -22.8125 48.3125 C-29.40961729 43.83546169 -34.28282908 37.90151275 -36.8125 30.3125 C-37.75380125 20.89948751 -35.85513833 13.9544608 -30.0625 6.5 C-22.57224647 -1.71450197 -10.21002336 -4.2989572 0 0 Z " fill="#000000" transform="translate(562.8125,421.6875)"/>
</svg>
