<svg height="1024pt" preserveAspectRatio="xMidYMid meet" viewBox="0 0 951 1024" width="951pt" xmlns="http://www.w3.org/2000/svg"><g transform="matrix(.1 0 0 -.1 0 1024)"><path d="m4615 10206c-318-74-785-371-1335-851-481-419-1215-1164-1666-1690-770-899-1321-1783-1518-2436-57-189-70-273-70-464 0-189 10-258 54-365 101-245 303-406 620-493 251-70 719-117 1152-117h167l15-52c82-283 100-427 101-803v-310l-51-105c-254-522-290-959-110-1335 129-270 363-532 691-776 108-80 253-169 275-169 9 0 53 23 99 51 179 110 314 277 391 484 14 39 32 70 39 70s27-38 45-90c69-191 151-318 294-457 122-118 332-258 387-258 20 0 127 54 185 93 25 17 78 62 119 101 117 113 182 219 226 372 14 48 28 90 30 93 11 10 24-17 44-92 59-217 211-405 423-521 93-52 132-50 234 12 281 168 468 393 559 669 15 47 32 83 40 83 7 0 25-35 40-78 74-212 236-403 425-501l75-39 120 80c506 340 824 720 917 1096 30 118 32 443 5 569-23 106-95 315-162 473-85 197-90 225-89 505 1 312 28 525 95 752l22 72 51 5c28 3 152 8 276 11 848 21 1227 121 1477 389 119 127 179 272 192 465 23 342-76 700-330 1201-413 816-1107 1715-2107 2731-787 800-1465 1346-1915 1541-200 87-390 117-532 84zm270-326c487-167 1791-1407 2794-2654 758-944 1210-1699 1306-2184 25-121 18-309-13-377-113-249-609-433-1421-530-118-14-221-31-228-37-54-44-245-571-325-896-11-48-25-92-30-98-4-6-32-14-62-17-149-15-249-144-232-301 10-101 72-166 198-209 53-19 64-27 71-52 5-16 24-70 43-119 18-49 33-90 31-91-1-1-36-18-77-38-96-45-156-98-219-193-173-258-117-571 124-690 66-33 83-37 178-41l106-6-21-41c-76-149-264-347-447-470-59-40-85-44-113-19-27 24-22 37 23 67 90 60 123 222 67 331-35 67-114 139-196 178-56 27-78 32-138 32-60-1-82-6-135-32-56-28-66-30-78-18-8 8-38 84-66 170l-52 156-12-111c-31-286-106-518-227-701-95-144-307-309-395-309-89 1-238 115-338 260-109 157-208 444-228 659-8 79-17 63-33-57-35-264-148-540-281-686-88-96-215-176-281-176-35 0-198 85-205 107-2 6 27 21 64 33 132 44 185 81 244 173 49 75 65 148 50 230-39 224-268 418-492 419-86 0-142-13-211-48-26-13-49-20-51-16s-7 36-11 72c-17 168-15 166-53 34-18-66-54-160-78-210-92-185-248-385-404-515l-94-79-51 37c-111 79-239 188-305 259-83 89-130 159-181 267-37 79-76 204-67 214 3 2 28 10 56 18 109 29 184 94 222 195 20 50 21 62 11 144-14 110-45 177-112 240-28 26-50 52-50 57 0 6 22 61 49 123 27 61 57 137 66 168 15 54 19 59 68 82 177 84 199 288 48 435-30 29-68 54-93 62l-42 14-48 175c-26 96-66 231-89 300-58 176-199 531-213 535-6 3-96 14-201 25-499 56-901 153-1147 276-277 139-347 242-335 494 22 466 483 1280 1304 2305 1016 1268 2347 2530 2828 2681 62 20 164 17 230-6z"/><path d="m3475 6484c-130-19-296-66-404-115-171-78-375-250-513-433-128-171-219-386-275-651-25-119-27-149-27-350-1-236 11-333 61-505 128-443 391-779 759-966 215-109 359-139 632-132 278 8 391 38 708 187 183 85 257 105 374 98 104-6 164-25 367-121 267-126 379-154 651-163 248-9 410 20 596 106 398 184 692 560 819 1046 59 225 61 617 5 860-110 474-384 837-770 1020-205 97-394 130-693 122-289-8-414-39-722-177-256-116-315-116-563 0-300 140-435 171-760 175-118 2-228 1-245-1zm388-159c220-33 400-120 600-289 74-63 197-214 247-305 25-44 47-81 50-81s23 30 45 67c210 358 536 576 922 616 538 54 1051-295 1232-839 55-164 66-241 66-444 0-204-13-286-67-440-149-421-473-720-878-811-327-73-657 0-933 207-133 100-294 286-355 411-14 29-29 50-34 47s-21-31-37-63c-38-74-134-203-208-278-137-140-358-269-548-319-87-24-121-27-260-28-98 0-183 4-220 12-495 108-858 480-966 992-31 148-32 392-1 535 58 272 176 498 352 675 202 204 399 299 710 344 62 9 193 5 283-9z"/><path d="m3606 6094c-126-30-282-132-369-239-56-69-102-158-122-235-19-71-19-229 0-300 49-186 198-354 390-441 423-191 939 109 962 561 15 297-198 572-505 651-91 23-267 25-356 3z"/><path d="m5566 6095c-126-32-277-129-364-234-57-68-106-161-127-241-19-71-19-229 0-300 37-139 134-275 260-365 379-271 897-113 1063 323 23 58 26 83 26 187 1 138-16 200-86 319-77 131-226 248-378 298-86 28-306 35-394 13z"/><path d="m4945 2846c-139-61-193-252-106-373 15-21 51-51 79-66 169-92 351 3 352 183 0 97-66 207-152 251-43 22-128 25-173 5z"/><path d="m3443 2599c-105-40-190-162-181-258 8-85 75-193 139-227 72-37 218-3 297 70 84 77 111 179 77 293-19 65-48 101-99 124-56 25-164 24-233-2z"/><path d="m5890 2531c-96-32-195-112-225-183-51-123 23-317 142-373 107-51 305 34 381 163 24 42 27 56 27 142 0 81-4 102-25 145-21 42-34 55-83 79-61 30-167 44-217 27z"/><path d="m4438 2206c-103-28-192-125-230-249-23-78-21-164 7-230 21-50 79-114 129-140 75-39 221-22 317 39 88 55 124 138 117 273-7 138-64 239-161 285-67 32-120 38-179 22z"/><path d="m2860 1495c-84-38-123-106-124-216 0-92 27-147 92-194 40-27 51-30 120-30 59 0 85 5 112 20 77 46 114 198 70 289-48 101-187 168-270 131z"/><path d="m5169 1338c-45-30-99-136-99-192 1-74 52-161 114-193 37-19 144-18 190 1 50 21 78 81 84 176 4 72 3 77-29 125-63 93-186 132-260 83z"/></g></svg>