<svg
  width="1086"
  height="1167"
  viewBox="0 0 1086 1167"
  fill="none"
  xmlns="http://www.w3.org/2000/svg"
>

  <!-- 1. The black 'outline/background' part -->
  <path
    d="M1047.4 500.507C1000.09 407.027 920.59 304.047 806.03 187.657C715.87 96.0071 638.2 33.4571 586.65 11.1171C563.74 1.15705 541.98 -2.28295 525.71 1.49705C489.28 9.97705 435.78 43.9971 372.77 98.9871C317.67 146.987 233.59 232.327 181.92 292.587C93.71 395.577 30.59 496.847 8.01999 571.647C1.48999 593.297 0 602.927 0 624.807C0 646.687 1.14997 654.357 6.18997 666.617C17.76 694.687 40.9 713.127 77.22 723.097C105.97 731.107 159.58 736.497 209.19 736.497H228.32L230.04 742.457C239.43 774.877 241.49 791.367 241.61 834.447V869.957L235.76 881.987C206.67 941.787 202.54 991.847 223.16 1034.92C237.94 1065.85 264.75 1095.87 302.32 1123.82C314.69 1132.98 331.3 1143.18 333.82 1143.18C334.86 1143.18 339.9 1140.54 345.17 1137.33C365.67 1124.73 381.14 1105.6 389.96 1081.89C391.56 1077.42 393.62 1073.87 394.43 1073.87C395.24 1073.87 397.52 1078.22 399.58 1084.18C407.49 1106.06 416.88 1120.61 433.26 1136.53C447.24 1150.05 471.29 1166.09 477.59 1166.09C479.89 1166.09 492.14 1159.9 498.79 1155.44C501.65 1153.49 507.72 1148.33 512.42 1143.86C525.82 1130.92 533.27 1118.78 538.31 1101.25C539.91 1095.75 541.52 1090.94 541.75 1090.6C543.01 1089.45 544.5 1092.54 546.79 1101.13C553.55 1125.99 570.96 1147.53 595.24 1160.82C605.9 1166.78 610.37 1166.55 622.05 1159.44C654.24 1140.2 675.66 1114.42 686.09 1082.81C687.81 1077.42 689.75 1073.3 690.67 1073.3C691.47 1073.3 693.53 1077.31 695.25 1082.23C703.73 1106.52 722.29 1128.4 743.94 1139.63L752.53 1144.09L766.28 1134.93C824.24 1095.98 860.67 1052.45 871.33 1009.37C874.76 995.857 874.99 958.627 871.9 944.187C869.27 932.047 861.02 908.107 853.34 890.007C843.6 867.437 843.03 864.227 843.15 832.147C843.26 796.407 846.35 772.007 854.03 746.007L856.55 737.757L862.39 737.187C865.6 736.837 879.8 736.267 894.01 735.927C991.15 733.517 1034.57 722.057 1063.21 691.357C1076.84 676.807 1083.72 660.197 1085.21 638.087C1087.84 598.917 1076.5 557.897 1047.4 500.507Z"
    fill="black"
  />

  <!-- 2. The orange "colored body" part -->
  <path
    d="M1026.32 593.067C1015.33 537.507 963.55 451.017 876.71 342.877C761.81 200.027 612.43 57.9771 556.64 38.8471C549.08 36.2071 537.39 35.8671 530.29 38.1571C475.19 55.4571 322.71 200.027 206.32 345.287C112.27 462.707 59.46 555.957 56.94 609.337C55.57 638.207 63.58 650.007 95.32 665.927C123.5 680.017 169.55 691.127 226.71 697.547C238.74 698.807 249.05 700.067 249.74 700.407C251.34 700.867 267.5 741.537 274.14 761.697C276.78 769.607 281.36 785.067 284.34 796.067L289.83 816.117L294.65 817.717C297.51 818.637 301.86 821.497 305.3 824.817C322.6 841.657 320.08 865.027 299.8 874.657C294.19 877.287 293.73 877.857 292.01 884.047C290.98 887.597 287.54 896.307 284.45 903.287C281.36 910.397 278.84 916.697 278.84 917.387C278.84 917.957 281.36 920.937 284.57 923.907C292.24 931.127 295.79 938.807 297.4 951.407C298.54 960.797 298.43 962.177 296.14 967.897C291.78 979.477 283.19 986.917 270.7 990.237C267.5 991.157 264.63 992.077 264.29 992.307C263.26 993.447 267.73 1007.77 271.96 1016.82C277.81 1029.19 283.19 1037.21 292.7 1047.41C300.26 1055.54 314.92 1068.03 327.64 1077.08L333.48 1081.32L344.25 1072.27C362.12 1057.37 379.99 1034.46 390.53 1013.27C393.28 1007.54 397.4 996.767 399.47 989.207C403.82 974.087 403.59 973.857 405.54 993.107C406 997.227 406.57 1000.9 406.8 1001.36C407.03 1001.81 409.66 1001.01 412.64 999.517C420.54 995.507 426.96 994.017 436.81 994.017C462.47 994.137 488.71 1016.36 493.17 1042.02C494.89 1051.42 493.06 1059.78 487.45 1068.37C480.69 1078.91 474.62 1083.15 459.49 1088.19C455.26 1089.56 451.93 1091.28 452.16 1091.97C452.96 1094.49 471.64 1104.23 475.65 1104.23C483.21 1104.23 497.76 1095.06 507.84 1084.07C523.07 1067.34 536.02 1035.72 540.03 1005.48C541.86 991.727 542.89 989.897 543.81 998.947C546.1 1023.58 557.44 1056.46 569.93 1074.44C581.38 1091.05 598.45 1104.11 608.65 1104.23C618.73 1104.23 643.01 1085.33 653.9 1068.83C667.76 1047.87 676.35 1021.29 679.9 988.527L681.28 975.807L687.23 993.677C690.44 1003.53 693.88 1012.24 694.79 1013.15C696.17 1014.53 697.32 1014.3 703.73 1011.09C709.8 1008.11 712.32 1007.54 719.2 1007.43C726.07 1007.43 728.59 1008 735 1011.09C744.4 1015.56 753.45 1023.81 757.46 1031.48C763.87 1043.97 760.09 1062.53 749.78 1069.4C744.63 1072.84 744.05 1074.33 747.15 1077.08C750.36 1079.94 753.33 1079.48 760.09 1074.9C781.06 1060.81 802.59 1038.13 811.3 1021.06L813.71 1016.36L801.56 1015.68C790.68 1015.22 788.73 1014.76 781.17 1010.98C753.56 997.347 747.15 961.487 766.97 931.927C774.18 921.047 781.06 914.977 792.05 909.817C796.75 907.527 800.76 905.587 800.87 905.467C801.1 905.357 799.39 900.657 797.32 895.047C795.15 889.427 792.97 883.247 792.4 881.407C791.6 878.547 790.34 877.627 784.26 875.457C769.83 870.527 762.73 863.077 761.58 851.507C759.63 833.527 771.09 818.747 788.16 817.027C791.6 816.687 794.8 815.767 795.26 815.087C795.83 814.397 797.44 809.357 798.7 803.857C807.86 766.627 829.74 706.257 835.93 701.217C836.73 700.527 848.53 698.577 862.05 696.977C955.07 685.857 1011.89 664.787 1024.83 636.257C1028.39 628.467 1029.19 606.927 1026.32 593.067Z"
    fill="#FF9500"
  />

  <!-- 3. The black "freckles" -->
  <path d="M600.74 873.967C600.63 894.587 579.78 905.467 560.42 894.927C557.21 893.207 553.09 889.777 551.37 887.367C541.4 873.507 547.59 851.627 563.51 844.637C568.67 842.347 578.4 842.687 583.33 845.207C593.18 850.247 600.74 862.857 600.74 873.967Z" fill="black"/>
  <path d="M420.66 920.477C411.61 928.837 394.88 932.737 386.64 928.497C379.3 924.597 371.63 912.227 370.71 902.487C369.68 891.497 379.42 877.517 391.45 872.937C399.35 869.957 411.72 869.837 418.14 872.707C423.98 875.337 427.3 879.467 429.48 886.907C433.38 899.967 430.28 911.657 420.66 920.477Z" fill="black"/>
  <path d="M709 909.477C709 919.327 708.66 920.937 705.91 925.747C697.2 940.527 674.52 950.257 662.26 944.417C648.63 938.007 640.15 915.777 645.99 901.687C649.43 893.557 660.77 884.387 671.77 880.727C677.5 878.777 689.64 880.377 696.63 883.817C702.24 886.567 703.73 888.057 706.14 892.867C708.54 897.797 709 900.197 709 909.477Z" fill="black"/>
  <path d="M530.98 984.397C519.98 991.387 503.26 993.337 494.66 988.867C488.94 985.887 482.29 978.557 479.89 972.827C476.68 965.267 476.45 955.417 479.08 946.477C483.44 932.277 493.63 921.167 505.43 917.957C512.19 916.117 518.26 916.807 525.94 920.477C537.05 925.747 543.58 937.317 544.38 953.127C545.18 968.587 541.06 978.097 530.98 984.397Z" fill="black"/>
  <path d="M347.57 1047.52C344.48 1049.24 341.5 1049.81 334.74 1049.81C326.84 1049.81 325.58 1049.47 320.99 1046.38C313.55 1040.99 310.46 1034.69 310.46 1024.15C310.57 1011.55 315.04 1003.76 324.66 999.407C334.17 995.167 350.09 1002.84 355.59 1014.42C360.63 1024.84 356.39 1042.25 347.57 1047.52Z" fill="black"/>
  <path d="M622.28 1041.22C621.59 1052.1 618.39 1058.98 612.66 1061.38C607.39 1063.56 595.13 1063.67 590.89 1061.5C583.79 1057.83 577.95 1047.87 577.83 1039.39C577.83 1032.97 584.02 1020.83 589.17 1017.39C597.65 1011.78 611.74 1016.25 618.96 1026.9C622.62 1032.4 622.74 1032.97 622.28 1041.22Z" fill="black"/>

  <!-- 4. The black "eyes frame" -->
  <path
    d="M825.05 558.357C812.44 504.057 781.06 462.477 736.83 441.507C713.35 430.397 691.7 426.627 657.45 427.537C624.34 428.457 610.02 432.007 574.73 447.817C545.42 461.097 538.65 461.097 510.25 447.817C475.88 431.767 460.41 428.217 423.18 427.767C409.66 427.537 397.06 427.647 395.11 427.877C380.22 430.057 361.2 435.437 348.83 441.047C329.24 449.987 305.87 469.697 290.06 490.657C275.4 510.247 264.97 534.877 258.56 565.227C255.69 578.867 255.47 582.297 255.47 605.327C255.35 632.357 256.73 643.477 262.46 663.187C277.12 713.927 307.25 752.417 349.41 773.847C374.04 786.327 390.53 789.757 421.81 788.957C453.65 788.047 466.6 784.617 502.91 767.537C523.87 757.797 532.35 755.507 545.76 756.317C557.67 756.997 564.54 759.177 587.8 770.177C618.38 784.617 631.21 787.817 662.37 788.847C690.79 789.877 709.35 786.557 730.65 776.707C776.24 755.627 809.93 712.557 824.47 656.877C831.24 631.107 831.46 586.197 825.05 558.357Z"
    fill="black"
  />

  <!-- 5. The white "sclera" -->
  <path
    d="M794.23 541.287C773.5 478.957 714.73 438.987 653.1 445.167C608.89 449.757 571.53 474.727 547.48 515.737C544.97 519.977 542.68 523.417 542.32 523.417C541.96 523.417 539.46 519.177 536.6 514.137C530.87 503.707 516.78 486.407 508.3 479.197C485.38 459.837 464.77 449.867 439.56 446.087C429.26 444.487 414.25 444.027 407.14 445.067C371.51 450.227 348.95 461.097 325.81 484.477C305.64 504.747 292.13 530.637 285.49 561.807C281.94 578.187 282.05 606.137 285.61 623.087C297.98 681.747 339.56 724.367 396.27 736.727C400.51 737.647 410.25 738.097 421.47 738.097C437.4 737.977 441.3 737.637 451.26 734.887C473.03 729.157 498.34 714.377 514.04 698.347C522.51 689.747 533.5 674.977 537.86 666.507C539.69 662.827 541.52 659.627 542.1 659.287C542.68 658.947 544.39 661.357 545.99 664.677C552.98 678.997 571.43 700.307 586.67 711.757C618.28 735.477 656.09 743.837 693.55 735.477C739.95 725.047 777.07 690.797 794.13 642.567C800.31 624.927 801.8 615.537 801.8 592.167C801.8 568.797 800.54 560.087 794.24 541.307L794.23 541.287Z"
    fill="white"
  />

  <!-- 6. The irises (left then right) -->
  <path
    d="M508.76 548.477C506.13 600.257 447.01 634.627 398.56 612.737C376.56 602.767 359.49 583.527 353.88 562.217C351.71 554.077 351.71 535.987 353.88 527.847C356.17 519.027 361.44 508.827 367.86 500.927C377.83 488.677 395.7 476.987 410.13 473.547C420.33 471.037 440.48 471.257 450.91 473.897C486.08 482.947 510.48 514.447 508.76 548.477Z"
    fill="black"
  />
  <path
    d="M732.94 544.617C732.94 556.527 732.6 559.397 729.96 566.027C710.94 615.987 651.6 634.087 608.19 603.037C593.75 592.727 582.64 577.137 578.4 561.217C576.23 553.077 576.23 534.987 578.4 526.847C580.81 517.687 586.42 507.027 592.95 499.247C602.92 487.217 620.21 476.107 634.65 472.437C644.73 469.917 669.94 470.707 679.79 473.917C697.2 479.647 714.27 493.047 723.09 508.067C731.11 521.697 733.06 528.797 732.94 544.607V544.617Z"
    fill="black"
  />

</svg>
